<?xml version="1.0" encoding="UTF-8" standalone="no"?>
<!DOCTYPE svg PUBLIC "-//W3C//DTD SVG 1.1//EN" "http://www.w3.org/Graphics/SVG/1.1/DTD/svg11.dtd">
<svg width="100%" height="100%" viewBox="0 0 119 119" version="1.1" xmlns="http://www.w3.org/2000/svg" xmlns:xlink="http://www.w3.org/1999/xlink" xml:space="preserve" xmlns:serif="http://www.serif.com/" style="fill-rule:evenodd;clip-rule:evenodd;stroke-linecap:round;stroke-linejoin:round;stroke-miterlimit:1.5;">
    <g transform="matrix(0.959844,0,0,0.959844,3.03311,2.04532)">
        <circle cx="58.366" cy="59.395" r="58.376" style="fill:none;stroke:black;stroke-width:4.26px;"/>
    </g>
    <g transform="matrix(1,0,0,1,3.43058,3.28197)">
        <path d="M61.851,13.22L62.823,24.718C66.245,25.511 69.513,26.865 72.494,28.724L81.311,21.28C84.658,23.773 87.625,26.739 90.117,30.087L82.674,38.904C84.533,41.885 85.886,45.152 86.68,48.575L98.178,49.546C98.782,53.676 98.782,57.871 98.178,62L86.68,62.971C85.886,66.394 84.533,69.662 82.674,72.643L90.117,81.46C87.625,84.807 84.658,87.773 81.311,90.266L72.494,82.822C69.513,84.681 66.245,86.035 62.823,86.828L61.851,98.326C57.722,98.931 53.527,98.931 49.398,98.326L48.426,86.828C45.004,86.035 41.736,84.681 38.755,82.822L29.938,90.266C26.591,87.773 23.624,84.807 21.132,81.46L28.575,72.643C26.716,69.662 25.363,66.394 24.569,62.971L13.071,62C12.467,57.871 12.467,53.676 13.071,49.546L24.569,48.575C25.363,45.152 26.716,41.885 28.575,38.904L21.132,30.087C23.624,26.739 26.591,23.773 29.938,21.28L38.755,28.724C41.736,26.865 45.004,25.511 48.426,24.718L49.398,13.22C53.527,12.616 57.722,12.616 61.851,13.22ZM55.625,41.877C63.294,41.877 69.521,48.103 69.521,55.773C69.521,63.443 63.294,69.67 55.625,69.67C47.955,69.67 41.728,63.443 41.728,55.773C41.728,48.103 47.955,41.877 55.625,41.877Z" style="fill:none;stroke:black;stroke-width:4.17px;"/>
    </g>
</svg>
