<?xml version="1.0" encoding="UTF-8" standalone="no"?>
<!DOCTYPE svg PUBLIC "-//W3C//DTD SVG 1.1//EN" "http://www.w3.org/Graphics/SVG/1.1/DTD/svg11.dtd">
<svg width="100%" height="100%" viewBox="0 0 1024 1024" version="1.1" xmlns="http://www.w3.org/2000/svg" xmlns:xlink="http://www.w3.org/1999/xlink" xml:space="preserve" xmlns:serif="http://www.serif.com/" style="fill-rule:evenodd;clip-rule:evenodd;stroke-linecap:round;stroke-linejoin:round;stroke-miterlimit:1.5;">
    <g transform="matrix(0.987723,0,0,0.981565,7.03292,10.497)">
        <rect x="-7.12" y="-10.694" width="1036.73" height="1043.23" style="fill:rgb(215,215,215);"/>
    </g>
    <g transform="matrix(0.688852,-0.724902,0.724902,0.688852,-239.544,531.924)">
        <g transform="matrix(-0.0825559,0.856067,-0.873654,-0.0842519,969.351,119.614)">
            <path d="M279.265,116.274L481.332,475.253C479.774,476.13 478.81,477.779 478.81,479.567C478.81,482.299 481.028,484.518 483.761,484.518C486.495,484.518 488.711,482.301 488.711,479.567L900.654,479.567C900.654,709.811 714.005,896.461 483.761,896.461C253.671,896.461 66.867,709.657 66.867,479.567C66.867,328.999 148.056,190.131 279.265,116.274Z" style="fill:rgb(126,75,11);stroke:rgb(126,75,11);stroke-width:87.82px;"/>
        </g>
        <g transform="matrix(0.753472,0.657481,-0.657481,0.753472,499.857,545.003)">
            <path d="M430.958,0C430.958,-123.694 377.808,-241.425 285.033,-323.235C192.257,-405.046 68.802,-443.048 -53.92,-427.571C-166.51,-413.373 -267.572,-351.48 -331.389,-257.642C-395.206,-163.805 -415.625,-47.069 -387.451,62.86C-362.063,161.918 -295.335,245.292 -204.246,291.767C-113.157,338.242 -6.49,343.336 88.613,305.754C173.28,272.296 239.489,204.071 270.393,118.438C301.296,32.806 293.915,-61.977 250.126,-141.793C211.736,-211.77 145.127,-261.877 67.251,-279.365C-10.626,-296.853 -92.263,-280.035 -156.887,-233.191C-212.425,-192.933 -247.987,-130.751 -254.524,-62.469C-261.061,5.813 -237.943,73.612 -191.053,123.677C-151.833,165.551 -96.512,188.554 -39.166,186.833C18.181,185.112 72.024,158.834 108.662,114.683C138.133,79.169 150.924,32.703 143.779,-12.892C136.634,-58.486 110.243,-98.812 71.32,-123.608C41.861,-142.375 5.759,-147.58 -27.801,-137.897C-61.361,-128.215 -89.142,-104.579 -104.076,-73.004C-114.212,-51.573 -114.651,-26.82 -105.281,-5.044C-95.911,16.733 -77.636,33.433 -55.105,40.808C-43.24,44.692 -30.278,43.29 -19.517,36.959C-8.756,30.629 -1.234,19.98 1.134,7.722C1.188,7.446 1.214,7.167 1.214,6.887" style="fill:none;stroke:rgb(226,150,56);stroke-width:76.31px;"/>
        </g>
    </g>
</svg>
